<svg width="20" height="15" viewBox="0 0 20 15" fill="none" xmlns="http://www.w3.org/2000/svg">
<path d="M18 0H1.5C1.10218 0 0.720644 0.158035 0.43934 0.43934C0.158035 0.720644 0 1.10218 0 1.5V13.5C0 13.8978 0.158035 14.2794 0.43934 14.5607C0.720644 14.842 1.10218 15 1.5 15H18C18.3978 15 18.7794 14.842 19.0607 14.5607C19.342 14.2794 19.5 13.8978 19.5 13.5V1.5C19.5 1.10218 19.342 0.720644 19.0607 0.43934C18.7794 0.158035 18.3978 0 18 0ZM7.5 9V6H12V9H7.5ZM12 10.5V13.5H7.5V10.5H12ZM1.5 6H6V9H1.5V6ZM7.5 4.5V1.5H12V4.5H7.5ZM13.5 6H18V9H13.5V6ZM18 4.5H13.5V1.5H18V4.5ZM6 1.5V4.5H1.5V1.5H6ZM1.5 10.5H6V13.5H1.5V10.5ZM18 13.5H13.5V10.5H18V13.5Z" fill="black"/>
</svg>
