<svg width="18" height="20" viewBox="0 0 18 20" fill="none" xmlns="http://www.w3.org/2000/svg">
<path fill-rule="evenodd" clip-rule="evenodd" d="M8 12.9998C8 13.265 8.10536 13.5194 8.29289 13.7069C8.48043 13.8944 8.73478 13.9998 9 13.9998C9.26522 13.9998 9.51957 13.8944 9.70711 13.7069C9.89464 13.5194 10 13.265 10 12.9998V4.99979H12C12.1978 4.99974 12.391 4.94107 12.5555 4.83119C12.7199 4.7213 12.848 4.56514 12.9237 4.38244C12.9993 4.19974 13.0192 3.99871 12.9806 3.80475C12.942 3.6108 12.8468 3.43264 12.707 3.29279L9.707 0.292786C9.51947 0.105315 9.26516 0 9 0C8.73484 0 8.48053 0.105315 8.293 0.292786L5.293 3.29279C5.15319 3.43264 5.05798 3.6108 5.01942 3.80475C4.98085 3.99871 5.00065 4.19974 5.07632 4.38244C5.15199 4.56514 5.28013 4.7213 5.44454 4.83119C5.60895 4.94107 5.80225 4.99974 6 4.99979H8V12.9998ZM1 6.99979C0.734784 6.99979 0.48043 7.10514 0.292893 7.29268C0.105357 7.48022 0 7.73457 0 7.99979V16.9998C0 17.7954 0.316071 18.5585 0.87868 19.1211C1.44129 19.6837 2.20435 19.9998 3 19.9998H15C15.7956 19.9998 16.5587 19.6837 17.1213 19.1211C17.6839 18.5585 18 17.7954 18 16.9998V7.99979C18 7.73457 17.8946 7.48022 17.7071 7.29268C17.5196 7.10514 17.2652 6.99979 17 6.99979H15C14.7348 6.99979 14.4804 7.10514 14.2929 7.29268C14.1054 7.48022 14 7.73457 14 7.99979C14 8.265 14.1054 8.51936 14.2929 8.70689C14.4804 8.89443 14.7348 8.99979 15 8.99979H16V16.9998C16 17.265 15.8946 17.5194 15.7071 17.7069C15.5196 17.8944 15.2652 17.9998 15 17.9998H3C2.73478 17.9998 2.48043 17.8944 2.29289 17.7069C2.10536 17.5194 2 17.265 2 16.9998V8.99979H3C3.26522 8.99979 3.51957 8.89443 3.70711 8.70689C3.89464 8.51936 4 8.265 4 7.99979C4 7.73457 3.89464 7.48022 3.70711 7.29268C3.51957 7.10514 3.26522 6.99979 3 6.99979H1Z" fill="#808080"/>
</svg>
