<svg width="18" height="18" viewBox="0 0 18 18" fill="none" xmlns="http://www.w3.org/2000/svg">
<path d="M7.99891 8.99869C8.24384 8.99873 8.48025 9.08865 8.66328 9.25141C8.84632 9.41417 8.96325 9.63844 8.99191 9.88169L8.99891 9.99869V14.9987C8.99863 15.2536 8.90103 15.4987 8.72606 15.6841C8.55109 15.8694 8.31195 15.9809 8.05751 15.9959C7.80307 16.0108 7.55253 15.928 7.35708 15.7644C7.16162 15.6008 7.03601 15.3688 7.00591 15.1157L6.99891 14.9987V12.4127L1.70591 17.7057C1.52595 17.885 1.28447 17.9892 1.03052 17.9969C0.776575 18.0047 0.529195 17.9155 0.338629 17.7474C0.148064 17.5794 0.0286027 17.3451 0.00450906 17.0922C-0.0195846 16.8393 0.0534961 16.5867 0.208908 16.3857L0.291908 16.2917L5.58491 10.9987H2.99891C2.74403 10.9984 2.49888 10.9008 2.31354 10.7258C2.1282 10.5509 2.01667 10.3117 2.00174 10.0573C1.9868 9.80286 2.06958 9.55231 2.23317 9.35686C2.39676 9.16141 2.62881 9.0358 2.88191 9.00569L2.99891 8.99869H7.99891ZM16.2919 0.291694C16.4719 0.112346 16.7133 0.00822094 16.9673 0.000466345C17.2212 -0.00728825 17.4686 0.0819096 17.6592 0.249943C17.8498 0.417977 17.9692 0.652246 17.9933 0.905169C18.0174 1.15809 17.9443 1.4107 17.7889 1.61169L17.7059 1.70569L12.4129 6.99869H14.9989C15.2538 6.99898 15.4989 7.09657 15.6843 7.27154C15.8696 7.44651 15.9811 7.68565 15.9961 7.94009C16.011 8.19453 15.9282 8.44507 15.7646 8.64053C15.6011 8.83598 15.369 8.96159 15.1159 8.99169L14.9989 8.99869H9.99891C9.75397 8.99866 9.51757 8.90874 9.33454 8.74598C9.1515 8.58322 9.03456 8.35894 9.00591 8.11569L8.99891 7.99869V2.99869C8.99919 2.74381 9.09679 2.49866 9.27176 2.31333C9.44673 2.12799 9.68586 2.01646 9.9403 2.00152C10.1947 1.98659 10.4453 2.06937 10.6407 2.23296C10.8362 2.39655 10.9618 2.6286 10.9919 2.88169L10.9989 2.99869V5.58469L16.2919 0.291694Z" fill="#808080"/>
</svg>
