<svg width="27" height="27" viewBox="0 0 27 27" fill="none" xmlns="http://www.w3.org/2000/svg">
<path d="M9.79592 0H2.44898C1.79947 0 1.17656 0.258017 0.717289 0.717289C0.258017 1.17656 0 1.79947 0 2.44898V9.79592C0 10.4454 0.258017 11.0683 0.717289 11.5276C1.17656 11.9869 1.79947 12.2449 2.44898 12.2449H9.79592C10.4454 12.2449 11.0683 11.9869 11.5276 11.5276C11.9869 11.0683 12.2449 10.4454 12.2449 9.79592V2.44898C12.2449 1.79947 11.9869 1.17656 11.5276 0.717289C11.0683 0.258017 10.4454 0 9.79592 0ZM9.79592 9.79592H2.44898V2.44898H9.79592V9.79592ZM24.4898 0H17.1429C16.4933 0 15.8704 0.258017 15.4112 0.717289C14.9519 1.17656 14.6939 1.79947 14.6939 2.44898V9.79592C14.6939 10.4454 14.9519 11.0683 15.4112 11.5276C15.8704 11.9869 16.4933 12.2449 17.1429 12.2449H24.4898C25.1393 12.2449 25.7622 11.9869 26.2215 11.5276C26.6808 11.0683 26.9388 10.4454 26.9388 9.79592V2.44898C26.9388 1.79947 26.6808 1.17656 26.2215 0.717289C25.7622 0.258017 25.1393 0 24.4898 0ZM24.4898 9.79592H17.1429V2.44898H24.4898V9.79592ZM9.79592 14.6939H2.44898C1.79947 14.6939 1.17656 14.9519 0.717289 15.4112C0.258017 15.8704 0 16.4933 0 17.1429V24.4898C0 25.1393 0.258017 25.7622 0.717289 26.2215C1.17656 26.6808 1.79947 26.9388 2.44898 26.9388H9.79592C10.4454 26.9388 11.0683 26.6808 11.5276 26.2215C11.9869 25.7622 12.2449 25.1393 12.2449 24.4898V17.1429C12.2449 16.4933 11.9869 15.8704 11.5276 15.4112C11.0683 14.9519 10.4454 14.6939 9.79592 14.6939ZM9.79592 24.4898H2.44898V17.1429H9.79592V24.4898ZM24.4898 14.6939H17.1429C16.4933 14.6939 15.8704 14.9519 15.4112 15.4112C14.9519 15.8704 14.6939 16.4933 14.6939 17.1429V24.4898C14.6939 25.1393 14.9519 25.7622 15.4112 26.2215C15.8704 26.6808 16.4933 26.9388 17.1429 26.9388H24.4898C25.1393 26.9388 25.7622 26.6808 26.2215 26.2215C26.6808 25.7622 26.9388 25.1393 26.9388 24.4898V17.1429C26.9388 16.4933 26.6808 15.8704 26.2215 15.4112C25.7622 14.9519 25.1393 14.6939 24.4898 14.6939ZM24.4898 24.4898H17.1429V17.1429H24.4898V24.4898Z" fill="black"/>
</svg>
