<svg width="29" height="24" viewBox="0 0 29 24" fill="none" xmlns="http://www.w3.org/2000/svg">
<path d="M26.4 13.2H2.4C1.76348 13.2 1.15303 13.4529 0.702944 13.9029C0.252856 14.353 0 14.9635 0 15.6V21.6C0 22.2365 0.252856 22.847 0.702944 23.2971C1.15303 23.7471 1.76348 24 2.4 24H26.4C27.0365 24 27.647 23.7471 28.0971 23.2971C28.5471 22.847 28.8 22.2365 28.8 21.6V15.6C28.8 14.9635 28.5471 14.353 28.0971 13.9029C27.647 13.4529 27.0365 13.2 26.4 13.2ZM26.4 21.6H2.4V15.6H26.4V21.6ZM26.4 0H2.4C1.76348 0 1.15303 0.252856 0.702944 0.702944C0.252856 1.15303 0 1.76348 0 2.4V8.4C0 9.03652 0.252856 9.64697 0.702944 10.0971C1.15303 10.5471 1.76348 10.8 2.4 10.8H26.4C27.0365 10.8 27.647 10.5471 28.0971 10.0971C28.5471 9.64697 28.8 9.03652 28.8 8.4V2.4C28.8 1.76348 28.5471 1.15303 28.0971 0.702944C27.647 0.252856 27.0365 0 26.4 0ZM26.4 8.4H2.4V2.4H26.4V8.4Z" fill="#FFA821"/>
</svg>
